<?xml version="1.0" encoding="UTF-8" standalone="no"?>
<svg width="74px" height="75px" viewBox="0 0 74 75" version="1.1" xmlns="http://www.w3.org/2000/svg" xmlns:xlink="http://www.w3.org/1999/xlink" xmlns:sketch="http://www.bohemiancoding.com/sketch/ns">
    <!-- Generator: Sketch 3.4.4 (17249) - http://www.bohemiancoding.com/sketch -->
    <title>simbolo</title>
    <desc>Created with Sketch.</desc>
    <defs></defs>
    <g id="Page-1" stroke="none" stroke-width="1" fill="none" fill-rule="evenodd" sketch:type="MSPage">
        <g id="simbolo" sketch:type="MSLayerGroup">
            <path d="M44.9580781,19.4305576 L36.8539551,11.2944065 L28.470361,2.87714029 C25.2607434,-0.344622302 20.0093749,-0.344622302 16.8002948,2.87714029 L2.40699818,17.3278597 C-0.802081918,20.5496223 -0.802081918,25.8217446 2.40699818,29.0435072 L10.7905923,37.4607734 L18.8947153,29.3246223 L15.697459,26.1147302 C14.0931877,24.5035791 14.0931877,21.8672482 15.697459,20.2566367 L19.7175426,16.2206655 C21.3223514,14.6095144 23.9477669,14.6095144 25.5525757,16.2206655 L28.7503695,19.4305576 L36.8539551,27.5667086 L46.7090718,37.4607734 L54.8131948,29.3246223 L44.9580781,19.4305576 Z" id="Fill-41" fill="#988473" sketch:type="MSShapeGroup"></path>
            <path d="M71.3012345,45.8778237 L62.9171029,37.4605576 L54.8135173,45.5967086 L58.0107736,48.8066007 C59.6150449,50.4177518 59.6150449,53.0540827 58.0107736,54.6646942 L53.9901526,58.7006655 C52.3858812,60.3118165 49.7599282,60.3118165 48.1556569,58.7006655 L44.9578632,55.4907734 L36.8542775,47.3546223 L26.9991609,37.4605576 L18.8950378,45.5967086 L28.7501545,55.4907734 L36.8542775,63.6269245 L45.2378717,72.0441906 C48.4474892,75.2659532 53.6988577,75.2659532 56.9079378,72.0441906 L71.3012345,57.5940108 C74.5103145,54.3717086 74.5103145,49.0995863 71.3012345,45.8778237" id="Fill-42" fill="#988473" sketch:type="MSShapeGroup"></path>
            <path d="M25.5527369,58.7008813 C23.9479282,60.3120324 21.3225126,60.3114928 19.7177038,58.7008813 L15.6976203,54.6649101 C14.0928115,53.053759 14.0928115,50.4179676 15.6976203,48.8068165 L18.8948766,45.5969245 L26.9989996,37.4607734 L36.8541163,27.5667086 L28.7499933,19.4305576 L18.8948766,29.3246223 L10.7907535,37.4607734 L2.40715941,45.8780396 C-0.802458129,49.0998022 -0.802458129,54.3719245 2.40715941,57.5936871 L16.800456,72.0438669 C20.0095361,75.2656295 25.2609047,75.2661691 28.4699848,72.0438669 L36.8541163,63.6271403 L28.7499933,55.4909892 L25.5527369,58.7008813 Z" id="Fill-43" fill="#F0E8E5" sketch:type="MSShapeGroup"></path>
            <path d="M71.3012345,17.3275899 L56.9079378,2.87741007 C53.6988577,-0.344352518 48.4474892,-0.344352518 45.2378717,2.87741007 L36.8542775,11.2946763 L44.9578632,19.4302878 L48.1556569,16.2203957 C49.7599282,14.6097842 52.3858812,14.6097842 53.9901526,16.2203957 L58.0107736,20.2563669 C59.6150449,21.867518 59.6150449,24.5038489 58.0107736,26.1144604 L54.8135173,29.3248921 L46.7093942,37.4605036 L36.8542775,47.3545683 L44.9578632,55.4907194 L54.8135173,45.5966547 L62.9171029,37.4605036 L71.3012345,29.043777 C74.5103145,25.8214748 74.5103145,20.5493525 71.3012345,17.3275899" id="Fill-44" fill="#F0E8E5" sketch:type="MSShapeGroup"></path>
        </g>
    </g>
</svg>