<?xml version="1.0" encoding="UTF-8" standalone="no"?>
<svg width="215px" height="50px" viewBox="0 0 215 50" version="1.1" xmlns="http://www.w3.org/2000/svg" xmlns:xlink="http://www.w3.org/1999/xlink" xmlns:sketch="http://www.bohemiancoding.com/sketch/ns">
    <!-- Generator: Sketch 3.5.2 (25235) - http://www.bohemiancoding.com/sketch -->
    <title>GDA-logo</title>
    <desc>Created with Sketch.</desc>
    <defs></defs>
    <g id="Page-1" stroke="none" stroke-width="1" fill="none" fill-rule="evenodd" sketch:type="MSPage">
        <g id="GDA-logo" sketch:type="MSLayerGroup">
            <path d="M68.8719784,20.7385252 C68.1169424,20.7385252 67.4194604,20.616223 66.7795324,20.3723381 C66.1396043,20.1288129 65.5849281,19.7856475 65.1155036,19.3435612 C64.6457194,18.9018345 64.2773741,18.3748561 64.0104676,17.7622662 C63.7432014,17.150036 63.6097482,16.4755755 63.6097482,15.7388849 L63.6097482,15.7111871 C63.6097482,15.0115468 63.7403237,14.3554317 64.0014748,13.7432014 C64.2626259,13.1309712 64.6223381,12.5967986 65.0802518,12.1410432 C65.5381655,11.6852878 66.0867266,11.3288129 66.7259353,11.0705396 C67.3647842,10.8129856 68.0572302,10.6842086 68.8029137,10.6842086 C69.6593885,10.6842086 70.3982374,10.8083094 71.0194604,11.0568705 C71.6410432,11.3054317 72.2093885,11.6507554 72.7252158,12.0928417 L71.1507554,13.9849281 C70.8007554,13.6903237 70.4439209,13.4647842 70.0806115,13.3083094 C69.7165827,13.1518345 69.2953597,13.0734173 68.8165827,13.0734173 C68.4665827,13.0734173 68.1421223,13.142482 67.8428417,13.2806115 C67.5435612,13.4183813 67.2838489,13.6075899 67.0626259,13.8467986 C66.8417626,14.0863669 66.6665827,14.3669424 66.5378058,14.6892446 C66.4086691,15.0115468 66.3446403,15.3568705 66.3446403,15.7252158 L66.3446403,15.752554 C66.3446403,16.1396043 66.4090288,16.4985971 66.5385252,16.8298921 C66.6676619,17.1615468 66.850036,17.4446403 67.0856475,17.6795324 C67.3216187,17.9140647 67.5985971,18.0985971 67.9173022,18.2320504 C68.2356475,18.3655036 68.5892446,18.4320504 68.9773741,18.4320504 C69.6054317,18.4320504 70.1226978,18.2985971 70.5291727,18.0313309 L70.5291727,16.8575899 L68.6234173,16.8575899 L68.6234173,14.8964388 L73.0705396,14.8964388 L73.0705396,19.2467986 C72.5547122,19.6705396 71.9471583,20.0252158 71.247518,20.3101079 C70.547518,20.5957194 69.7557914,20.7385252 68.8719784,20.7385252" id="Fill-1" fill="#F0E8E5" sketch:type="MSShapeGroup"></path>
            <path d="M82.2065468,18.3215108 C82.5756115,18.3215108 82.9130216,18.252446 83.2176978,18.1146763 C83.5223741,17.9761871 83.7806475,17.7898561 83.9932374,17.554964 C84.2054676,17.3204317 84.3716547,17.0463309 84.4917986,16.7333813 C84.6115827,16.4204317 84.6716547,16.088777 84.6716547,15.738777 L84.6716547,15.7110791 C84.6716547,15.3614388 84.6115827,15.0301439 84.4917986,14.7168345 C84.3716547,14.4038849 84.2007914,14.1276259 83.9792086,13.8880576 C83.7576259,13.6488489 83.4946763,13.4578417 83.19,13.315036 C82.8853237,13.1725899 82.5482734,13.1010072 82.1788489,13.1010072 C81.8094245,13.1010072 81.4748921,13.1700719 81.1748921,13.3082014 C80.8745324,13.4463309 80.616259,13.6326619 80.3989928,13.867554 C80.1820863,14.102446 80.0158993,14.3765468 79.9004317,14.6891367 C79.784964,15.002446 79.7274101,15.333741 79.7274101,15.683741 L79.7274101,15.7110791 C79.7274101,16.0614388 79.787482,16.3927338 79.9072662,16.7056835 C80.0274101,17.0186331 80.1961151,17.2948921 80.4130216,17.5344604 C80.6299281,17.7740288 80.8907194,17.965036 81.1953957,18.107482 C81.5000719,18.2502878 81.8371223,18.3215108 82.2065468,18.3215108 M82.1856835,20.7384173 C81.44,20.7384173 80.7493525,20.6071223 80.1141007,20.3448921 C79.4788489,20.0823022 78.9310072,19.7258273 78.4705755,19.2743885 C78.0101439,18.8236691 77.6489928,18.2941727 77.3864029,17.686259 C77.1241727,17.078705 76.9928777,16.4294245 76.9928777,15.738777 L76.9928777,15.7110791 C76.9928777,15.0207914 77.1241727,14.3693525 77.3864029,13.7571223 C77.6489928,13.1448921 78.0148201,12.6107194 78.4846043,12.154964 C78.9540288,11.6992086 79.5065468,11.3402158 80.1417986,11.0776259 C80.7770504,10.8153957 81.4676978,10.6841007 82.2133813,10.6841007 C82.9594245,10.6841007 83.6497122,10.8153957 84.2853237,11.0776259 C84.9205755,11.3402158 85.4680576,11.6970504 85.9284892,12.1477698 C86.3889209,12.5992086 86.7504317,13.128705 87.0126619,13.736259 C87.2752518,14.3441727 87.4065468,14.9930935 87.4065468,15.683741 L87.4065468,15.7110791 C87.4065468,16.4017266 87.2752518,17.0531655 87.0126619,17.6653957 C86.7504317,18.2779856 86.3842446,18.8117986 85.9148201,19.267554 C85.4453957,19.7233094 84.8928777,20.0823022 84.2576259,20.3448921 C83.6220144,20.6071223 82.9317266,20.7384173 82.1856835,20.7384173" id="Fill-3" fill="#F0E8E5" sketch:type="MSShapeGroup"></path>
            <path d="M90.7900719,10.8774101 L93.7871942,10.8774101 L95.9828777,16.9957554 L98.1789209,10.8774101 L101.120647,10.8774101 L97.1983453,20.6141007 L94.7123741,20.6141007 L90.7900719,10.8774101 L90.7900719,10.8774101 Z" id="Fill-5" fill="#F0E8E5" sketch:type="MSShapeGroup"></path>
            <path d="M104.82205,10.8774101 L112.583921,10.8774101 L112.583921,13.1561871 L107.45982,13.1561871 L107.45982,14.6202158 L112.100468,14.6202158 L112.100468,16.7335252 L107.45982,16.7335252 L107.45982,18.266259 L112.652986,18.266259 L112.652986,20.545036 L104.82205,20.545036 L104.82205,10.8774101 L104.82205,10.8774101 Z" id="Fill-7" fill="#F0E8E5" sketch:type="MSShapeGroup"></path>
            <path d="M121.243381,15.5177698 C121.703813,15.5177698 122.058129,15.4145324 122.306691,15.2069784 C122.555252,15.0001439 122.679712,14.7217266 122.679712,14.3713669 L122.679712,14.3440288 C122.679712,13.9569784 122.550576,13.6695683 122.293022,13.4807194 C122.035108,13.2922302 121.680432,13.1976259 121.229712,13.1976259 L119.475396,13.1976259 L119.475396,15.5177698 L121.243381,15.5177698 L121.243381,15.5177698 Z M116.796259,10.877482 L121.367842,10.877482 C122.113525,10.877482 122.744101,10.9695683 123.259928,11.153741 C123.775396,11.3379137 124.194101,11.5954676 124.516763,11.9271223 C125.087266,12.4796403 125.372878,13.23 125.372878,14.1782014 L125.372878,14.2058993 C125.372878,14.9515827 125.193381,15.5684892 124.834388,16.056259 C124.475036,16.5447482 123.991942,16.9174101 123.384029,17.1753237 L125.690504,20.5451079 L122.596978,20.5451079 L120.649496,17.6174101 L120.621799,17.6174101 L119.475396,17.6174101 L119.475396,20.5451079 L116.796259,20.5451079 L116.796259,10.877482 L116.796259,10.877482 Z" id="Fill-9" fill="#F0E8E5" sketch:type="MSShapeGroup"></path>
            <path d="M129.488525,10.8774101 L131.993561,10.8774101 L135.979892,15.987482 L135.979892,10.8774101 L138.617662,10.8774101 L138.617662,20.545036 L136.264784,20.545036 L132.126295,15.2417986 L132.126295,20.545036 L129.488525,20.545036 L129.488525,10.8774101 L129.488525,10.8774101 Z" id="Fill-11" fill="#F0E8E5" sketch:type="MSShapeGroup"></path>
            <path d="M148.782554,16.7471583 L147.705216,13.9985971 L146.614209,16.7471583 L148.782554,16.7471583 L148.782554,16.7471583 Z M146.434712,10.8083094 L149.017446,10.8083094 L153.132914,20.545 L150.260252,20.545 L149.555935,18.818741 L145.826799,18.818741 L145.136511,20.545 L142.318885,20.545 L146.434712,10.8083094 L146.434712,10.8083094 Z" id="Fill-13" fill="#F0E8E5" sketch:type="MSShapeGroup"></path>
            <path d="M156.834388,10.8774101 L159.339424,10.8774101 L163.325755,15.987482 L163.325755,10.8774101 L165.963525,10.8774101 L165.963525,20.545036 L163.610647,20.545036 L159.472158,15.2417986 L159.472158,20.545036 L156.834388,20.545036 L156.834388,10.8774101 L156.834388,10.8774101 Z" id="Fill-15" fill="#F0E8E5" sketch:type="MSShapeGroup"></path>
            <path d="M175.092518,20.7385252 C174.401871,20.7385252 173.75295,20.6144245 173.145036,20.3655036 C172.537482,20.1169424 172.010144,19.7698201 171.563741,19.3230576 C171.116978,18.876295 170.762662,18.3471583 170.500432,17.7345683 C170.237842,17.1223381 170.106547,16.4572302 170.106547,15.7388849 L170.106547,15.7111871 C170.106547,15.0115468 170.235683,14.3554317 170.493597,13.7432014 C170.751151,13.1309712 171.105468,12.5967986 171.556906,12.1410432 C172.007986,11.6852878 172.544317,11.3288129 173.165899,11.0705396 C173.787122,10.8129856 174.466259,10.6842086 175.20295,10.6842086 C175.700072,10.6842086 176.151151,10.7324101 176.556547,10.8291727 C176.961583,10.9259353 177.332086,11.063705 177.668417,11.2432014 C178.004388,11.4230576 178.307986,11.6370863 178.579928,11.8856475 C178.851151,12.1342086 179.092878,12.4057914 179.304748,12.7003957 L177.288561,14.2611871 C177.012302,13.9115468 176.708345,13.6349281 176.37705,13.4324101 C176.045396,13.2298921 175.645036,13.1284532 175.175252,13.1284532 C174.834604,13.1284532 174.523813,13.1953597 174.243237,13.3288129 C173.962302,13.4622662 173.720576,13.6442806 173.518058,13.8744964 C173.31554,14.1047122 173.156547,14.376295 173.041439,14.6892446 C172.926331,15.002554 172.868777,15.3338489 172.868777,15.6834892 L172.868777,15.7111871 C172.868777,16.0701799 172.926331,16.4086691 173.041439,16.726295 C173.156547,17.0442806 173.31554,17.3180216 173.518058,17.5478777 C173.720576,17.7784532 173.962302,17.9604676 174.243237,18.0935612 C174.523813,18.2273741 174.834604,18.2939209 175.175252,18.2939209 C175.423813,18.2939209 175.651871,18.266223 175.859065,18.2108273 C176.066259,18.1557914 176.254748,18.0752158 176.425252,17.9694604 C176.595396,17.863705 176.756906,17.7392446 176.908705,17.5964388 C177.060504,17.4539928 177.210144,17.295 177.357626,17.1198201 L179.373813,18.5565108 C179.143597,18.8694604 178.892878,19.1593885 178.621295,19.426295 C178.349353,19.6935612 178.041079,19.923777 177.695755,20.1169424 C177.350432,20.3101079 176.964101,20.4622662 176.535683,20.5730576 C176.107626,20.6831295 175.626331,20.7385252 175.092518,20.7385252" id="Fill-17" fill="#F0E8E5" sketch:type="MSShapeGroup"></path>
            <path d="M183.282338,10.8774101 L191.044209,10.8774101 L191.044209,13.1561871 L185.920108,13.1561871 L185.920108,14.6202158 L190.560755,14.6202158 L190.560755,16.7335252 L185.920108,16.7335252 L185.920108,18.266259 L191.113273,18.266259 L191.113273,20.545036 L183.282338,20.545036 L183.282338,10.8774101 L183.282338,10.8774101 Z" id="Fill-19" fill="#F0E8E5" sketch:type="MSShapeGroup"></path>
            <path d="M67.7192446,36.6942086 C68.5232014,36.6942086 69.169964,36.4823381 69.6595324,36.0589568 C70.1494604,35.6355755 70.3944245,35.0323381 70.3944245,34.2496043 L70.3944245,34.2219065 C70.3944245,33.4485252 70.1494604,32.8478058 69.6595324,32.4197482 C69.169964,31.9916906 68.5232014,31.7773022 67.7192446,31.7773022 L66.6239209,31.7773022 L66.6239209,36.6942086 L67.7192446,36.6942086 L67.7192446,36.6942086 Z M63.9447842,29.4021223 L67.6735612,29.4021223 C68.5390288,29.4021223 69.3102518,29.5193885 69.9868705,29.7542806 C70.6638489,29.9891727 71.2347122,30.3183094 71.6998201,30.7416906 C72.1645683,31.1654317 72.5188849,31.6693885 72.7631295,32.2539209 C73.0070144,32.8388129 73.1289568,33.4808993 73.1289568,34.1808993 L73.1289568,34.2082374 C73.1289568,34.9082374 73.0048561,35.5546403 72.756295,36.1488849 C72.5073741,36.7427698 72.1483813,37.2560791 71.6789568,37.6884532 C71.2091727,38.1215468 70.6314748,38.460036 69.9455036,38.7035612 C69.2595324,38.9478058 68.4836331,39.0697482 67.6185252,39.0697482 L63.9447842,39.0697482 L63.9447842,29.4021223 L63.9447842,29.4021223 Z" id="Fill-21" fill="#F0E8E5" sketch:type="MSShapeGroup"></path>
            <path d="M82.962554,35.2717626 L81.8852158,32.5232014 L80.7942086,35.2717626 L82.962554,35.2717626 L82.962554,35.2717626 Z M80.6147122,29.3329137 L83.197446,29.3329137 L87.3132734,39.0696043 L84.4402518,39.0696043 L83.7359353,37.3433453 L80.0071583,37.3433453 L79.3165108,39.0696043 L76.4988849,39.0696043 L80.6147122,29.3329137 L80.6147122,29.3329137 Z" id="Fill-23" fill="#F0E8E5" sketch:type="MSShapeGroup"></path>
            <path d="M93.3761151,31.7498201 L90.4757554,31.7498201 L90.4757554,29.4019784 L98.9556115,29.4019784 L98.9556115,31.7498201 L96.0556115,31.7498201 L96.0556115,39.0696043 L93.3761151,39.0696043 L93.3761151,31.7498201 L93.3761151,31.7498201 Z" id="Fill-25" fill="#F0E8E5" sketch:type="MSShapeGroup"></path>
            <path d="M108.581978,35.2717626 L107.50464,32.5232014 L106.413633,35.2717626 L108.581978,35.2717626 L108.581978,35.2717626 Z M106.234137,29.3329137 L108.816871,29.3329137 L112.932698,39.0696043 L110.059676,39.0696043 L109.35536,37.3433453 L105.626583,37.3433453 L104.935935,39.0696043 L102.118309,39.0696043 L106.234137,29.3329137 L106.234137,29.3329137 Z" id="Fill-27" fill="#F0E8E5" sketch:type="MSShapeGroup"></path>
            <path d="M128.798129,35.2720504 L127.720791,32.5234892 L126.629784,35.2720504 L128.798129,35.2720504 L128.798129,35.2720504 Z M126.450288,29.3332014 L129.033022,29.3332014 L133.148849,39.0698921 L130.275827,39.0698921 L129.571511,37.3436331 L125.842734,37.3436331 L125.152086,39.0698921 L122.33446,39.0698921 L126.450288,29.3332014 L126.450288,29.3332014 Z" id="Fill-29" fill="#F0E8E5" sketch:type="MSShapeGroup"></path>
            <path d="M136.849964,29.4023022 L139.52946,29.4023022 L139.52946,36.7220863 L144.211475,36.7220863 L144.211475,39.0699281 L136.849964,39.0699281 L136.849964,29.4023022 L136.849964,29.4023022 Z" id="Fill-31" fill="#F0E8E5" sketch:type="MSShapeGroup"></path>
            <path d="M148.11982,29.4023022 L150.799317,29.4023022 L150.799317,36.7220863 L155.481331,36.7220863 L155.481331,39.0699281 L148.11982,39.0699281 L148.11982,29.4023022 L148.11982,29.4023022 Z" id="Fill-33" fill="#F0E8E5" sketch:type="MSShapeGroup"></path>
            <path d="M159.444964,29.4021583 L162.138129,29.4021583 L162.138129,39.0697842 L159.444964,39.0697842 L159.444964,29.4021583 L159.444964,29.4021583 Z" id="Fill-35" fill="#F0E8E5" sketch:type="MSShapeGroup"></path>
            <path d="M172.358237,35.2720504 L171.280899,32.5234892 L170.189892,35.2720504 L172.358237,35.2720504 L172.358237,35.2720504 Z M170.010396,29.3332014 L172.593129,29.3332014 L176.708957,39.0698921 L173.835935,39.0698921 L173.131619,37.3436331 L169.402842,37.3436331 L168.712194,39.0698921 L165.894568,39.0698921 L170.010396,29.3332014 L170.010396,29.3332014 Z" id="Fill-37" fill="#F0E8E5" sketch:type="MSShapeGroup"></path>
            <path d="M180.410072,29.4023022 L182.915468,29.4023022 L186.901439,34.5123741 L186.901439,29.4023022 L189.539209,29.4023022 L189.539209,39.0699281 L187.186331,39.0699281 L183.047842,33.7666906 L183.047842,39.0699281 L180.410072,39.0699281 L180.410072,29.4023022 L180.410072,29.4023022 Z" id="Fill-38" fill="#F0E8E5" sketch:type="MSShapeGroup"></path>
            <path d="M198.668201,39.2634173 C197.977554,39.2634173 197.328633,39.1393165 196.720719,38.8903957 C196.113165,38.6418345 195.585827,38.2947122 195.139424,37.8479496 C194.692662,37.4011871 194.338345,36.8720504 194.076115,36.2594604 C193.813525,35.6472302 193.68223,34.9821223 193.68223,34.263777 L193.68223,34.2360791 C193.68223,33.5364388 193.811367,32.8803237 194.068921,32.2680935 C194.326835,31.6558633 194.681151,31.1216906 195.13259,30.6659353 C195.583669,30.2101799 196.12,29.853705 196.741583,29.5954317 C197.363165,29.3378777 198.041942,29.2091007 198.778633,29.2091007 C199.275755,29.2091007 199.726835,29.2573022 200.13223,29.3540647 C200.537266,29.4508273 200.90777,29.5885971 201.244101,29.7680935 C201.580072,29.9479496 201.883669,30.1619784 202.155612,30.4105396 C202.426835,30.6591007 202.668561,30.9306835 202.880432,31.2252878 L200.864245,32.7860791 C200.587986,32.4364388 200.284029,32.1598201 199.952734,31.9573022 C199.621079,31.7547842 199.220719,31.6533453 198.750935,31.6533453 C198.410288,31.6533453 198.099496,31.7202518 197.818921,31.853705 C197.537986,31.9871583 197.296259,32.1691727 197.093741,32.3993885 C196.891223,32.6296043 196.73223,32.9011871 196.617122,33.2141367 C196.502014,33.527446 196.44482,33.858741 196.44482,34.2083813 L196.44482,34.2360791 C196.44482,34.5950719 196.502014,34.9335612 196.617122,35.2511871 C196.73223,35.5691727 196.891223,35.8429137 197.093741,36.0727698 C197.296259,36.3033453 197.537986,36.4853597 197.818921,36.6184532 C198.099496,36.7522662 198.410288,36.8188129 198.750935,36.8188129 C198.999496,36.8188129 199.227554,36.7911151 199.434748,36.7357194 C199.641942,36.6806835 199.830432,36.6001079 200.000935,36.4943525 C200.171439,36.3885971 200.33259,36.2641367 200.484388,36.1213309 C200.636187,35.9788849 200.785827,35.8198921 200.933309,35.6447122 L202.949496,37.0814029 C202.719281,37.3943525 202.468561,37.6842806 202.196978,37.9511871 C201.925396,38.2184532 201.616763,38.4486691 201.271439,38.6418345 C200.926475,38.835 200.539784,38.9871583 200.111367,39.0979496 C199.683309,39.2080216 199.202014,39.2634173 198.668201,39.2634173" id="Fill-39" fill="#F0E8E5" sketch:type="MSShapeGroup"></path>
            <path d="M206.858129,29.4023022 L214.62,29.4023022 L214.62,31.6810791 L209.495899,31.6810791 L209.495899,33.1451079 L214.136547,33.1451079 L214.136547,35.2584173 L209.495899,35.2584173 L209.495899,36.7911511 L214.689065,36.7911511 L214.689065,39.0699281 L206.858129,39.0699281 L206.858129,29.4023022 L206.858129,29.4023022 Z" id="Fill-40" fill="#F0E8E5" sketch:type="MSShapeGroup"></path>
            <path d="M30.0905036,12.953705 L24.6664029,7.52960432 L19.0552518,1.91809353 C16.9070504,-0.229748201 13.3923022,-0.229748201 11.2444604,1.91809353 L1.61100719,11.5519065 C-0.536834532,13.6997482 -0.536834532,17.2144964 1.61100719,19.3623381 L7.22215827,24.9738489 L12.646259,19.5497482 L10.5063309,17.4098201 C9.43258993,16.3357194 9.43258993,14.5781655 10.5063309,13.5044245 L13.1969784,10.813777 C14.2710791,9.73967626 16.0282734,9.73967626 17.1023741,10.813777 L19.2426619,12.953705 L24.6664029,18.3778058 L31.262446,24.9738489 L36.6865468,19.5497482 L30.0905036,12.953705 L30.0905036,12.953705 Z" id="Fill-41" fill="#988473" sketch:type="MSShapeGroup"></path>
            <path d="M47.7220144,30.5852158 L42.1105036,24.973705 L36.6867626,30.3978058 L38.8266906,32.5377338 C39.9004317,33.6118345 39.9004317,35.3693885 38.8266906,36.4431295 L36.1356835,39.133777 C35.0619424,40.2078777 33.3043885,40.2078777 32.2306475,39.133777 L30.0903597,36.9938489 L24.6666187,31.5697482 L18.0705755,24.973705 L12.6464748,30.3978058 L19.242518,36.9938489 L24.6666187,42.4179496 L30.2777698,48.0294604 C32.4259712,50.1773022 35.9407194,50.1773022 38.0885612,48.0294604 L47.7220144,38.3960072 C49.8698561,36.2478058 49.8698561,32.7330576 47.7220144,30.5852158" id="Fill-42" fill="#988473" sketch:type="MSShapeGroup"></path>
            <path d="M17.102482,39.1339209 C16.0283813,40.2080216 14.2711871,40.2076619 13.1970863,39.1339209 L10.5064388,36.4432734 C9.43233813,35.3691727 9.43233813,33.6119784 10.5064388,32.5378777 L12.6463669,30.3979496 L18.0704676,24.9738489 L24.6665108,18.3778058 L19.2424101,12.953705 L12.6463669,19.5497482 L7.22226619,24.9738489 L1.61111511,30.5853597 C-0.537086331,32.7332014 -0.537086331,36.2479496 1.61111511,38.3957914 L11.2445683,48.0292446 C13.3924101,50.1770863 16.9071583,50.177446 19.055,48.0292446 L24.6665108,42.4180935 L19.2424101,36.9939928 L17.102482,39.1339209 L17.102482,39.1339209 Z" id="Fill-43" fill="#F0E8E5" sketch:type="MSShapeGroup"></path>
            <path d="M47.7220144,11.5517266 L38.0885612,1.91827338 C35.9407194,-0.229568345 32.4259712,-0.229568345 30.2777698,1.91827338 L24.6666187,7.52978417 L30.0903597,12.9535252 L32.2306475,10.8135971 C33.3043885,9.73985612 35.0619424,9.73985612 36.1356835,10.8135971 L38.8266906,13.5042446 C39.9004317,14.5783453 39.9004317,16.3358993 38.8266906,17.4096403 L36.6867626,19.5499281 L31.2626619,24.9736691 L24.6666187,31.5697122 L30.0903597,36.9938129 L36.6867626,30.3977698 L42.1105036,24.9736691 L47.7220144,19.362518 C49.8698561,17.2143165 49.8698561,13.6995683 47.7220144,11.5517266" id="Fill-44" fill="#F0E8E5" sketch:type="MSShapeGroup"></path>
        </g>
    </g>
</svg>