<?xml version="1.0" encoding="UTF-8" standalone="no"?>
<svg width="30px" height="30px" viewBox="0 0 30 30" version="1.1" xmlns="http://www.w3.org/2000/svg" xmlns:xlink="http://www.w3.org/1999/xlink" xmlns:sketch="http://www.bohemiancoding.com/sketch/ns">
    <!-- Generator: Sketch 3.4.4 (17249) - http://www.bohemiancoding.com/sketch -->
    <title>lupa</title>
    <desc>Created with Sketch.</desc>
    <defs></defs>
    <g id="Page-1" stroke="none" stroke-width="1" fill="none" fill-rule="evenodd" sketch:type="MSPage">
        <path d="M29.5225,29.63375 C29.27875,29.8775 28.96,30 28.64125,30 C28.3225,30 28.005,29.8775 27.76125,29.63375 L18.195,20.03125 C16.2775,21.5725 13.85,22.5 11.2075,22.5 C5.0275,22.5 0,17.45375 0,11.25125 C0,5.0475 5.0275,0 11.2075,0 C17.3875,0 22.415,5.0475 22.415,11.25125 C22.415,13.9025 21.49125,16.33875 19.95625,18.26375 L29.5225,27.86625 C30.00875,28.355 30.00875,29.145 29.5225,29.63375 L29.5225,29.63375 Z M11.2075,2.5 C6.4,2.5 2.49,6.42625 2.49,11.25125 C2.49,16.075 6.4,20 11.2075,20 C16.01375,20 19.925,16.075 19.925,11.25125 C19.925,6.42625 16.01375,2.5 11.2075,2.5 L11.2075,2.5 Z" id="lupa" fill="#000000" sketch:type="MSShapeGroup"></path>
    </g>
</svg>