<?xml version="1.0" encoding="utf-8"?>
<!-- Generator: Adobe Illustrator 19.2.1, SVG Export Plug-In . SVG Version: 6.00 Build 0)  -->
<svg version="1.1" id="Layer_1" xmlns="http://www.w3.org/2000/svg" xmlns:xlink="http://www.w3.org/1999/xlink" x="0px" y="0px"
	 viewBox="0 0 576 109" style="enable-background:new 0 0 576 109;" xml:space="preserve">
<style type="text/css">
	.st0{fill:#929B9E;}
	.st1{fill:#EE4527;}
	.st2{fill:#6A6D72;}
	.st3{fill:#696D71;}
</style>
<g>
	<path class="st0" d="M101.8,101.2H6V5.4h95.7V101.2z M99.8,7.4H7.9v91.9h91.9V7.4z"/>
	<g>
		<rect x="40.5" y="39.7" class="st1" width="7.7" height="7.7"/>
		<rect x="40.5" y="49.3" class="st1" width="7.7" height="7.7"/>
		<g>
			<rect x="11.8" y="11" class="st1" width="7.7" height="7.7"/>
			<rect x="21.3" y="11" class="st1" width="7.7" height="7.7"/>
			<rect x="30.9" y="11" class="st1" width="7.7" height="7.7"/>
			<rect x="59.6" y="11" class="st1" width="7.7" height="7.7"/>
			<rect x="69.2" y="11" class="st1" width="7.7" height="7.7"/>
			<rect x="78.8" y="11" class="st1" width="7.7" height="7.7"/>
			<rect x="11.8" y="20.6" class="st1" width="7.7" height="7.7"/>
			<rect x="21.3" y="20.6" class="st1" width="7.7" height="7.7"/>
			<rect x="50" y="20.6" class="st1" width="7.7" height="7.7"/>
			<rect x="59.6" y="20.6" class="st1" width="7.7" height="7.7"/>
			<rect x="69.2" y="20.6" class="st1" width="7.7" height="7.7"/>
			<rect x="78.8" y="20.6" class="st1" width="7.7" height="7.7"/>
			<rect x="88.4" y="20.6" class="st1" width="7.7" height="7.7"/>
			<rect x="11.8" y="30.1" class="st1" width="7.7" height="7.7"/>
			<rect x="50" y="30.1" class="st1" width="7.7" height="7.7"/>
			<rect x="69.2" y="30.1" class="st1" width="7.7" height="7.7"/>
			<rect x="78.8" y="30.1" class="st1" width="7.7" height="7.7"/>
			<rect x="88.4" y="30.1" class="st1" width="7.7" height="7.7"/>
			<rect x="11.8" y="39.7" class="st1" width="7.7" height="7.7"/>
			<rect x="50" y="39.7" class="st1" width="7.7" height="7.7"/>
			<rect x="59.6" y="39.7" class="st1" width="7.7" height="7.7"/>
			<rect x="78.8" y="39.7" class="st1" width="7.7" height="7.7"/>
			<rect x="21.3" y="49.3" class="st1" width="7.7" height="7.7"/>
			<rect x="50" y="49.3" class="st1" width="7.7" height="7.7"/>
			<rect x="59.6" y="49.3" class="st1" width="7.7" height="7.7"/>
			<rect x="69.2" y="49.3" class="st1" width="7.7" height="7.7"/>
			<rect x="88.4" y="49.3" class="st1" width="7.7" height="7.7"/>
			<rect x="21.3" y="59.1" class="st1" width="7.7" height="7.7"/>
			<rect x="30.9" y="59.1" class="st1" width="7.7" height="7.7"/>
			<rect x="50" y="59.1" class="st1" width="7.7" height="7.7"/>
			<rect x="59.6" y="59.1" class="st1" width="7.7" height="7.7"/>
			<rect x="21.3" y="68.4" class="st1" width="7.7" height="7.7"/>
			<rect x="30.9" y="68.4" class="st1" width="7.7" height="7.7"/>
			<rect x="50" y="68.4" class="st1" width="7.7" height="7.7"/>
			<rect x="59.6" y="68.4" class="st1" width="7.7" height="7.7"/>
			<rect x="78.8" y="68.4" class="st1" width="7.7" height="7.7"/>
			<rect x="88.4" y="68.4" class="st1" width="7.7" height="7.7"/>
			<rect x="30.9" y="78.2" class="st1" width="7.7" height="7.7"/>
			<rect x="50" y="78.2" class="st1" width="7.7" height="7.7"/>
			<rect x="88.4" y="78.2" class="st1" width="7.7" height="7.7"/>
			<rect x="30.9" y="87.8" class="st1" width="7.7" height="7.7"/>
		</g>
	</g>
</g>
<g>
	<g>
		<path class="st2" d="M154.8,37.9c0.1,5.7-0.5,10.4-4.3,14.8c-3.8,4.5-9.7,7-15.5,7c-11.8,0-21.6-9.8-21.6-21.6
			c0-12,9.8-21.8,21.9-21.8c7.3,0,13.3,3.3,17.8,9.1l-3.4,3.2c-3.5-5-8.2-7.9-14.4-7.9c-9.6,0-17.1,8.1-17.1,17.5
			c0,4.5,1.8,8.7,4.9,11.9c3.1,3.1,7.5,5.3,11.9,5.3c7.3,0,15-5.3,15-13.1h-12.5v-4.3H154.8z"/>
		<path class="st2" d="M164.4,54.6H176V59h-16.3V17h4.7V54.6z"/>
		<path class="st2" d="M218,38.1c0,12.1-9.9,21.7-21.9,21.7c-12,0-21.9-9.6-21.9-21.7c0-12,9.9-21.8,21.9-21.8
			C208.1,16.3,218,26,218,38.1z M178.9,38c0,9.5,7.7,17.4,17.2,17.4c9.5,0,17.2-7.9,17.2-17.4c0-9.5-7.6-17.4-17.2-17.4
			C186.5,20.6,178.9,28.5,178.9,38z"/>
		<path class="st2" d="M223,17h6.9c7.6,0,14,2.8,14,11.4c0,3.4-1.3,6.3-4.1,8.2c5,1.2,8,5.7,8,10.7c0,8.4-6.7,11.7-15,11.7H223V17z
			 M227.7,35.5h1.8c5.3,0,9.8-0.6,9.8-7.1c0-6.3-4-7-9.7-7h-1.8V35.5z M227.7,54.6h4.7c5.2,0,10.7-1.3,10.7-7.7
			c0-6.5-6.2-7.5-11.4-7.5h-4.1V54.6z"/>
		<path class="st2" d="M258.2,47.1L253.2,59H248l19.4-44l18.9,44h-5.2l-5-11.9H258.2z M267.3,25.9l-7.2,16.8h14.2L267.3,25.9z"/>
		<path class="st2" d="M293.8,54.6h11.6V59h-16.3V17h4.7V54.6z"/>
		<path class="st1" d="M329.1,59h-4.7V17h4.7V59z"/>
		<path class="st1" d="M336.3,15.2l32.7,34.3V17h4.7v43.9L341,26.7V59h-4.7V15.2z"/>
		<path class="st1" d="M391.7,59H387V21.4h-10.1V17h25.1v4.3h-10.2V59z"/>
		<path class="st1" d="M404.9,17h21.8v4.3h-17.1v12.5h16.6v4.3h-16.6v16.5h17.1V59h-21.8V17z"/>
		<path class="st1" d="M471.1,37.9c0.1,5.7-0.5,10.4-4.3,14.8c-3.8,4.5-9.7,7-15.5,7c-11.8,0-21.6-9.8-21.6-21.6
			c0-12,9.8-21.8,21.9-21.8c7.3,0,13.3,3.3,17.8,9.1l-3.4,3.2c-3.5-5-8.2-7.9-14.4-7.9c-9.6,0-17.1,8.1-17.1,17.5
			c0,4.5,1.8,8.7,4.9,11.9c3.1,3.1,7.5,5.3,11.9,5.3c7.3,0,15-5.3,15-13.1h-12.5v-4.3H471.1z"/>
		<path class="st1" d="M480.7,59h-4.7V17h6.1c8,0,15.4,2.1,15.4,11.6c0,6.5-4.1,11-10.5,11.6L500.3,59h-5.7l-12.7-18.4h-1.2V59z
			 M480.7,36.4h1.4c5.3,0,10.6-1,10.6-7.5c0-6.9-5.1-7.6-10.7-7.6h-1.4V36.4z"/>
		<path class="st1" d="M508.7,59H504V17h4.7V59z"/>
		<path class="st1" d="M526.4,59h-4.7V21.4h-10.1V17h25.1v4.3h-10.2V59z"/>
		<path class="st1" d="M538.7,17h5.4l10.7,18.7L565.4,17h5.4L557.1,41v18h-4.7V41L538.7,17z"/>
	</g>
	<g>
		<path class="st3" d="M115.5,69.3h3.4c1.7,0,4,0.2,6.1,1.9c1.5,1.3,2.8,3.4,2.8,6.4c0,3.5-1.7,5.4-2.9,6.4
			c-1.5,1.3-3.1,1.9-6.1,1.9h-3.4V69.3z M117.3,84.1h1.6c1.3,0,3.1-0.1,4.8-1.5c1.2-1,2.2-2.7,2.2-5.1c0-4-2.8-6.6-7-6.6h-1.6V84.1z
			"/>
		<path class="st3" d="M138.7,75.5h1.8v10.3h-1.8v-1.4c-0.6,0.8-1.7,1.7-3.5,1.7c-2.6,0-5-1.8-5-5.5c0-3.6,2.4-5.4,5-5.4
			c2,0,3.1,1.1,3.5,1.7V75.5z M132,80.7c0,2.2,1.2,3.9,3.4,3.9c2.2,0,3.4-1.8,3.4-3.9c0-2.7-1.8-3.8-3.4-3.8
			C133.6,76.9,132,78.2,132,80.7z"/>
		<path class="st3" d="M145.7,77.2v8.7h-1.8v-8.7h-1.1v-1.6h1.1v-3.7h1.8v3.7h1.8v1.6H145.7z"/>
		<path class="st3" d="M157.1,75.5h1.8v10.3h-1.8v-1.4c-0.6,0.8-1.7,1.7-3.5,1.7c-2.6,0-5-1.8-5-5.5c0-3.6,2.4-5.4,5-5.4
			c2,0,3.1,1.1,3.5,1.7V75.5z M150.4,80.7c0,2.2,1.2,3.9,3.4,3.9c2.2,0,3.4-1.8,3.4-3.9c0-2.7-1.8-3.8-3.4-3.8
			C152,76.9,150.4,78.2,150.4,80.7z"/>
		<path class="st3" d="M163.3,83.4l1.6,0.6l-2.5,5.6l-1.2-0.5L163.3,83.4z"/>
		<path class="st3" d="M177.2,69.3v14.9h4.6v1.7h-6.4V69.3H177.2z"/>
		<path class="st3" d="M193,83.2c-0.3,0.6-0.7,1.2-1.3,1.7c-0.9,0.8-2.1,1.3-3.4,1.3c-2.5,0-5.1-1.6-5.1-5.4c0-3.1,1.9-5.5,5-5.5
			c2,0,3.3,1,3.9,1.9c0.6,0.9,1,2.5,1,3.9h-8c0,2.1,1.5,3.5,3.3,3.5c0.8,0,1.5-0.2,2.1-0.7c0.5-0.4,0.8-0.9,1.1-1.4L193,83.2z
			 M191.3,79.6c-0.3-1.6-1.5-2.7-3-2.7c-1.5,0-2.8,1.1-3,2.7H191.3z"/>
		<path class="st3" d="M203.8,75.5h1.8v10.3h-1.8v-1.4c-0.6,0.8-1.7,1.7-3.5,1.7c-2.6,0-5-1.8-5-5.5c0-3.6,2.4-5.4,5-5.4
			c2,0,3.1,1.1,3.5,1.7V75.5z M197.1,80.7c0,2.2,1.2,3.9,3.4,3.9c2.2,0,3.4-1.8,3.4-3.9c0-2.7-1.8-3.8-3.4-3.8
			C198.7,76.9,197.1,78.2,197.1,80.7z"/>
		<path class="st3" d="M209,75.5h1.8v1.1c0.2-0.3,0.9-1.4,2.3-1.4c0.5,0,1.1,0.2,1.6,0.4l-0.8,1.6c-0.4-0.3-0.8-0.3-1-0.3
			c-0.7,0-1.2,0.3-1.4,0.6c-0.3,0.4-0.6,1.1-0.6,2.8v5.5H209V75.5z"/>
		<path class="st3" d="M216.3,75.5h1.8v1.2c0.3-0.4,1.2-1.4,3-1.4c1.2,0,2.3,0.5,3,1.4c0.5,0.8,0.6,1.6,0.6,2.8v6.4h-1.8v-6.4
			c0-0.6-0.1-1.3-0.5-1.9c-0.3-0.5-0.9-0.7-1.7-0.7c-0.6,0-1.3,0.2-1.8,0.8c-0.7,0.8-0.7,2-0.7,2.8v5.4h-1.8V75.5z"/>
		<path class="st3" d="M229,70.4c0.7,0,1.3,0.6,1.3,1.3c0,0.7-0.6,1.3-1.3,1.3c-0.7,0-1.3-0.6-1.3-1.3
			C227.7,70.9,228.3,70.4,229,70.4z M229.9,75.5v10.3h-1.8V75.5H229.9z"/>
		<path class="st3" d="M233.2,75.5h1.8v1.2c0.3-0.4,1.2-1.4,3-1.4c1.2,0,2.3,0.5,3,1.4c0.5,0.8,0.6,1.6,0.6,2.8v6.4h-1.8v-6.4
			c0-0.6-0.1-1.3-0.5-1.9c-0.3-0.5-0.9-0.7-1.7-0.7c-0.6,0-1.3,0.2-1.8,0.8c-0.7,0.8-0.7,2-0.7,2.8v5.4h-1.8V75.5z"/>
		<path class="st3" d="M252.9,75.5h1.8v10.1c0,1.1,0,2.7-1,4.1c-0.8,1-2.2,1.9-4.1,1.9c-1.8,0-3-0.7-3.7-1.4
			c-0.7-0.7-1.3-1.8-1.3-3.3h1.8c0,0.9,0.4,1.6,0.8,2.1c0.7,0.8,1.7,1,2.5,1c1.3,0,2.1-0.4,2.7-1.4c0.5-0.8,0.6-1.8,0.6-2.6v-1.5
			c-0.6,0.8-1.7,1.7-3.5,1.7c-1.5,0-2.7-0.6-3.5-1.4c-0.7-0.7-1.5-2-1.5-4.1c0-2,0.7-3.3,1.5-4c0.9-0.8,2.1-1.4,3.5-1.4
			c1.5,0,2.7,0.6,3.5,1.7V75.5z M247.2,77.9c-0.9,0.9-1,2-1,2.8c0,0.9,0.2,2.1,1.2,3c0.6,0.5,1.3,0.8,2.2,0.8s1.7-0.3,2.3-0.9
			c0.7-0.7,1.2-1.8,1.2-3c0-1.2-0.4-2.3-1.1-2.9c-0.6-0.6-1.4-0.9-2.3-0.9C248.4,76.9,247.7,77.4,247.2,77.9z"/>
		<path class="st3" d="M277.1,79.8c-0.4,0.6-1.1,1.4-2.1,2.5l2.8,3.6h-2.3l-1.8-2.3c-1.4,1.4-3.5,2.6-5.4,2.6c-2.7,0-4.8-2-4.8-4.6
			c0-1.8,0.9-2.9,1.5-3.4c0.9-0.9,2.4-1.8,2.8-2.1c-1.1-1.4-1.6-2.4-1.6-3.6c0-1.7,1.2-3.5,3.6-3.5c2.3,0,3.5,1.7,3.5,3.3
			c0,0.8-0.2,1.9-1.5,3c-0.4,0.4-0.3,0.2-1.3,1.1l3.5,4.5c0.9-0.9,1.4-1.5,1.9-2.2L277.1,79.8z M268.9,77.4
			c-1.2,0.7-1.9,1.3-2.3,1.7c-0.5,0.4-1.2,1.1-1.2,2.4c0,1.6,1.2,2.9,2.9,2.9c1.8,0,3.6-1.7,4.3-2.3L268.9,77.4z M269.3,75.1
			l1.1-0.8c0.9-0.7,1.1-1.3,1.1-1.9c0-1.2-0.9-1.7-1.8-1.7c-1,0-1.8,0.8-1.8,1.8c0,0.7,0.4,1.2,0.7,1.6L269.3,75.1z"/>
		<path class="st3" d="M295.1,81.2h-7.1l-2,4.7h-2l7.6-17.4l7.4,17.4h-2L295.1,81.2z M294.4,79.4l-2.8-6.7l-2.8,6.7H294.4z"/>
		<path class="st3" d="M309.1,78.4c-0.9-1.2-2.3-1.5-3.2-1.5c-1.9,0-3.7,1.3-3.7,3.9c0,2.5,1.8,3.8,3.6,3.8c1.1,0,2.4-0.5,3.3-1.6
			v2.1c-1.1,0.8-2.3,1.1-3.3,1.1c-3.2,0-5.5-2.3-5.5-5.4c0-3.2,2.3-5.5,5.5-5.5c1.6,0,2.7,0.6,3.2,1V78.4z"/>
		<path class="st3" d="M313.8,77.2v8.7H312v-8.7h-1.1v-1.6h1.1v-3.7h1.8v3.7h1.8v1.6H313.8z"/>
		<path class="st3" d="M318.2,70.4c0.7,0,1.3,0.6,1.3,1.3c0,0.7-0.6,1.3-1.3,1.3c-0.7,0-1.3-0.6-1.3-1.3
			C316.9,70.9,317.5,70.4,318.2,70.4z M319.1,75.5v10.3h-1.8V75.5H319.1z"/>
		<path class="st3" d="M321.8,80.7c0-3.1,2.3-5.5,5.5-5.5c3.2,0,5.5,2.3,5.5,5.5c0,3.1-2.3,5.4-5.5,5.4
			C324.2,86.2,321.8,83.9,321.8,80.7z M323.7,80.7c0,2.5,1.8,3.8,3.6,3.8c1.9,0,3.6-1.3,3.6-3.8c0-2.5-1.7-3.9-3.6-3.9
			C325.4,76.9,323.7,78.2,323.7,80.7z"/>
		<path class="st3" d="M335.5,75.5h1.8v1.2c0.3-0.4,1.2-1.4,3-1.4c1.2,0,2.3,0.5,3,1.4c0.5,0.8,0.6,1.6,0.6,2.8v6.4h-1.8v-6.4
			c0-0.6-0.1-1.3-0.5-1.9c-0.3-0.5-0.9-0.7-1.7-0.7c-0.6,0-1.3,0.2-1.8,0.8c-0.7,0.8-0.7,2-0.7,2.8v5.4h-1.8V75.5z"/>
		<path class="st3" d="M354.9,77.2v8.7h-1.8v-8.7h-1v-1.6h1V71c0-0.9,0.1-2.1,1-2.9c0.5-0.4,1.2-0.7,2.1-0.7c0.6,0,1.1,0.1,1.3,0.2
			v1.7c-0.4-0.2-0.8-0.2-1.2-0.2c-0.4,0-0.9,0.1-1.1,0.5c-0.2,0.4-0.2,0.9-0.2,1.5v4.3h2.5v1.6H354.9z"/>
		<path class="st3" d="M358.4,80.7c0-3.1,2.3-5.5,5.5-5.5c3.2,0,5.5,2.3,5.5,5.5c0,3.1-2.3,5.4-5.5,5.4
			C360.7,86.2,358.4,83.9,358.4,80.7z M360.2,80.7c0,2.5,1.8,3.8,3.6,3.8c1.9,0,3.6-1.3,3.6-3.8c0-2.5-1.7-3.9-3.6-3.9
			C362,76.9,360.2,78.2,360.2,80.7z"/>
		<path class="st3" d="M372.1,75.5h1.8v1.1c0.2-0.3,0.9-1.4,2.3-1.4c0.5,0,1.1,0.2,1.6,0.4l-0.8,1.6c-0.4-0.3-0.8-0.3-1-0.3
			c-0.7,0-1.2,0.3-1.4,0.6c-0.3,0.4-0.6,1.1-0.6,2.8v5.5h-1.8V75.5z"/>
		<path class="st3" d="M384.8,77.6c0-5,3.9-8.6,8.6-8.6c4.8,0,8.6,3.6,8.6,8.6c0,4.9-3.8,8.6-8.6,8.6
			C388.7,86.2,384.8,82.5,384.8,77.6z M386.7,77.6c0,3.8,3,6.9,6.8,6.9c3.7,0,6.8-3,6.8-6.9c0-3.8-3-6.9-6.8-6.9
			C389.7,70.7,386.7,73.8,386.7,77.6z"/>
		<path class="st3" d="M406.8,91.6h-1.8V75.5h1.8V77c1.2-1.5,2.8-1.7,3.5-1.7c3.2,0,5,2.7,5,5.5c0,2.8-1.8,5.4-5,5.4
			c-1.7,0-2.8-0.7-3.6-1.7V91.6z M413.6,80.8c0-2.5-1.7-3.9-3.4-3.9c-1.7,0-3.4,1.4-3.4,3.9c0,2.1,1.3,3.8,3.5,3.8
			C412.3,84.6,413.6,82.8,413.6,80.8z"/>
		<path class="st3" d="M427.3,83.2c-0.3,0.6-0.7,1.2-1.3,1.7c-0.9,0.8-2.1,1.3-3.4,1.3c-2.5,0-5.1-1.6-5.1-5.4c0-3.1,1.9-5.5,5-5.5
			c2,0,3.3,1,3.9,1.9c0.6,0.9,1,2.5,1,3.9h-8c0,2.1,1.5,3.5,3.3,3.5c0.8,0,1.5-0.2,2.1-0.7c0.5-0.4,0.8-0.9,1.1-1.4L427.3,83.2z
			 M425.6,79.6c-0.3-1.6-1.5-2.7-3-2.7c-1.5,0-2.8,1.1-3,2.7H425.6z"/>
		<path class="st3" d="M430.2,75.5h1.8v1.2c0.3-0.4,1.2-1.4,3-1.4c1.2,0,2.3,0.5,3,1.4c0.5,0.8,0.6,1.6,0.6,2.8v6.4h-1.8v-6.4
			c0-0.6-0.1-1.3-0.5-1.9c-0.3-0.5-0.9-0.7-1.7-0.7c-0.6,0-1.3,0.2-1.8,0.8c-0.7,0.8-0.7,2-0.7,2.8v5.4h-1.8V75.5z"/>
		<path class="st3" d="M456.7,77.5h6.9v0.4c0,1.8-0.5,3.8-1.6,5.3c-0.5,0.7-2.4,3-6.2,3c-4.9,0-8.6-3.8-8.6-8.6
			c0-4.8,3.7-8.6,8.7-8.6c1.6,0,3.5,0.4,5.1,1.6c0.7,0.6,1.4,1.3,1.9,2l-1.4,1.2c-0.5-0.7-1-1.3-1.6-1.7c-0.8-0.6-2-1.4-4-1.4
			c-4,0-6.8,3-6.8,6.9c0,4.5,3.6,6.8,6.8,6.8c2.2,0,4.1-1.1,5.1-2.8c0.3-0.5,0.6-1.3,0.7-2.4h-4.9V77.5z"/>
		<path class="st3" d="M465.9,80.7c0-3.1,2.3-5.5,5.5-5.5c3.2,0,5.5,2.3,5.5,5.5c0,3.1-2.3,5.4-5.5,5.4
			C468.3,86.2,465.9,83.9,465.9,80.7z M467.8,80.7c0,2.5,1.8,3.8,3.6,3.8c1.9,0,3.6-1.3,3.6-3.8c0-2.5-1.7-3.9-3.6-3.9
			C469.5,76.9,467.8,78.2,467.8,80.7z"/>
		<path class="st3" d="M480.1,75.5l3.1,7l3.1-7h2l-5.1,11l-5.1-11H480.1z"/>
		<path class="st3" d="M499.4,83.2c-0.3,0.6-0.7,1.2-1.3,1.7c-0.9,0.8-2.1,1.3-3.4,1.3c-2.5,0-5.1-1.6-5.1-5.4c0-3.1,1.9-5.5,5-5.5
			c2,0,3.3,1,3.9,1.9c0.6,0.9,1,2.5,1,3.9h-8c0,2.1,1.5,3.5,3.3,3.5c0.8,0,1.5-0.2,2.1-0.7c0.5-0.4,0.8-0.9,1.1-1.4L499.4,83.2z
			 M497.6,79.6c-0.3-1.6-1.5-2.7-3-2.7c-1.5,0-2.8,1.1-3,2.7H497.6z"/>
		<path class="st3" d="M502.2,75.5h1.8v1.1c0.2-0.3,0.9-1.4,2.3-1.4c0.5,0,1.1,0.2,1.6,0.4l-0.8,1.6c-0.4-0.3-0.8-0.3-1-0.3
			c-0.7,0-1.2,0.3-1.4,0.6c-0.3,0.4-0.6,1.1-0.6,2.8v5.5h-1.8V75.5z"/>
		<path class="st3" d="M509.6,75.5h1.8v1.2c0.3-0.4,1.2-1.4,3-1.4c1.2,0,2.3,0.5,3,1.4c0.5,0.8,0.6,1.6,0.6,2.8v6.4h-1.8v-6.4
			c0-0.6-0.1-1.3-0.5-1.9c-0.3-0.5-0.9-0.7-1.7-0.7c-0.6,0-1.3,0.2-1.8,0.8c-0.7,0.8-0.7,2-0.7,2.8v5.4h-1.8V75.5z"/>
		<path class="st3" d="M529.2,75.5h1.8v10.3h-1.8v-1.4c-0.6,0.8-1.7,1.7-3.5,1.7c-2.6,0-5-1.8-5-5.5c0-3.6,2.4-5.4,5-5.4
			c2,0,3.1,1.1,3.5,1.7V75.5z M522.5,80.7c0,2.2,1.2,3.9,3.4,3.9c2.2,0,3.4-1.8,3.4-3.9c0-2.7-1.8-3.8-3.4-3.8
			C524.1,76.9,522.5,78.2,522.5,80.7z"/>
		<path class="st3" d="M534.4,75.5h1.8v1.2c0.3-0.4,1.2-1.4,3-1.4c1.2,0,2.3,0.5,3,1.4c0.5,0.8,0.6,1.6,0.6,2.8v6.4h-1.8v-6.4
			c0-0.6,0-1.3-0.5-1.9c-0.3-0.5-0.9-0.7-1.7-0.7c-0.6,0-1.3,0.2-1.8,0.8c-0.7,0.8-0.7,2-0.7,2.8v5.4h-1.8V75.5z"/>
		<path class="st3" d="M554.2,78.4c-0.9-1.2-2.3-1.5-3.2-1.5c-1.9,0-3.7,1.3-3.7,3.9c0,2.5,1.8,3.8,3.6,3.8c1.1,0,2.4-0.5,3.3-1.6
			v2.1c-1.1,0.8-2.3,1.1-3.3,1.1c-3.2,0-5.5-2.3-5.5-5.4c0-3.2,2.3-5.5,5.5-5.5c1.6,0,2.7,0.6,3.2,1V78.4z"/>
		<path class="st3" d="M566.2,83.2c-0.3,0.6-0.7,1.2-1.3,1.7c-0.9,0.8-2.1,1.3-3.4,1.3c-2.5,0-5.1-1.6-5.1-5.4c0-3.1,1.9-5.5,5-5.5
			c2,0,3.3,1,3.9,1.9c0.6,0.9,1,2.5,1,3.9h-8c0,2.1,1.5,3.5,3.3,3.5c0.8,0,1.5-0.2,2.1-0.7c0.5-0.4,0.8-0.9,1.1-1.4L566.2,83.2z
			 M564.4,79.6c-0.3-1.6-1.5-2.7-3-2.7c-1.5,0-2.8,1.1-3,2.7H564.4z"/>
	</g>
</g>
</svg>
